<?xml version="1.0" encoding="UTF-8"?>
<svg width="300pt" height="300pt" version="1.1" viewBox="0 0 700 700" xmlns="http://www.w3.org/2000/svg" xmlns:xlink="http://www.w3.org/1999/xlink">
 <defs>
  <symbol id="o" overflow="visible">
   <path d="m29.312-1.75c-1.5117 0.78125-3.0898 1.3711-4.7344 1.7656-1.6367 0.40625-3.3398 0.60938-5.1094 0.60938-5.3125 0-9.5273-1.4844-12.641-4.4531-3.1055-2.9688-4.6562-7-4.6562-12.094s1.5508-9.125 4.6562-12.094c3.1133-2.9688 7.3281-4.4531 12.641-4.4531 1.7695 0 3.4727 0.19922 5.1094 0.59375 1.6445 0.39844 3.2227 0.99219 4.7344 1.7812v6.5938c-1.5312-1.0391-3.0391-1.8008-4.5156-2.2812-1.4805-0.48828-3.0391-0.73438-4.6719-0.73438-2.9375 0-5.2461 0.94531-6.9219 2.8281-1.6797 1.875-2.5156 4.4648-2.5156 7.7656 0 3.293 0.83594 5.8828 2.5156 7.7656 1.6758 1.875 3.9844 2.8125 6.9219 2.8125 1.6328 0 3.1914-0.23828 4.6719-0.71875 1.4766-0.48828 2.9844-1.2539 4.5156-2.2969z"/>
  </symbol>
  <symbol id="h" overflow="visible">
   <path d="m21.453-17.406c-0.67969-0.3125-1.3516-0.53906-2.0156-0.6875-0.65625-0.15625-1.3203-0.23438-1.9844-0.23438-1.9688 0-3.4844 0.63281-4.5469 1.8906-1.0547 1.2617-1.5781 3.0703-1.5781 5.4219v11.016h-7.6562v-23.922h7.6562v3.9219c0.97656-1.5625 2.1016-2.7031 3.375-3.4219 1.2812-0.71875 2.8125-1.0781 4.5938-1.0781 0.25 0 0.52344 0.011719 0.82812 0.03125 0.30078 0.023438 0.73438 0.070312 1.2969 0.14062z"/>
  </symbol>
  <symbol id="c" overflow="visible">
   <path d="m27.562-12.031v2.1875h-17.891c0.1875 1.793 0.83203 3.1367 1.9375 4.0312 1.1133 0.89844 2.6719 1.3438 4.6719 1.3438 1.6016 0 3.25-0.23438 4.9375-0.70312 1.6875-0.47656 3.4219-1.2031 5.2031-2.1719v5.8906c-1.8047 0.6875-3.6094 1.2031-5.4219 1.5469-1.8125 0.35156-3.6211 0.53125-5.4219 0.53125-4.3359 0-7.7031-1.0977-10.109-3.2969-2.3984-2.207-3.5938-5.2969-3.5938-9.2656 0-3.9062 1.1758-6.9727 3.5312-9.2031 2.3633-2.2383 5.6094-3.3594 9.7344-3.3594 3.7578 0 6.7695 1.1367 9.0312 3.4062 2.2578 2.2617 3.3906 5.2812 3.3906 9.0625zm-7.8594-2.5312c0-1.457-0.42969-2.6289-1.2812-3.5156-0.84375-0.89453-1.9492-1.3438-3.3125-1.3438-1.4922 0-2.6992 0.41797-3.625 1.25-0.91797 0.83594-1.4922 2.0391-1.7188 3.6094z"/>
  </symbol>
  <symbol id="g" overflow="visible">
   <path d="m14.391-10.766c-1.5938 0-2.793 0.27344-3.5938 0.8125-0.80469 0.54297-1.2031 1.3398-1.2031 2.3906 0 0.96875 0.32031 1.7305 0.96875 2.2812 0.64453 0.54297 1.5469 0.8125 2.7031 0.8125 1.4375 0 2.6445-0.51562 3.625-1.5469 0.98828-1.0312 1.4844-2.3203 1.4844-3.875v-0.875zm11.688-2.8906v13.656h-7.7031v-3.5469c-1.0312 1.4492-2.1875 2.5078-3.4688 3.1719s-2.8398 1-4.6719 1c-2.4805 0-4.4961-0.72266-6.0469-2.1719-1.543-1.4453-2.3125-3.3203-2.3125-5.625 0-2.8125 0.96094-4.8672 2.8906-6.1719 1.9375-1.3125 4.9688-1.9688 9.0938-1.9688h4.5156v-0.60938c0-1.207-0.48047-2.0938-1.4375-2.6562-0.94922-0.5625-2.4375-0.84375-4.4688-0.84375-1.6367 0-3.1562 0.16797-4.5625 0.5-1.4062 0.32422-2.7188 0.8125-3.9375 1.4688v-5.8281c1.6445-0.40625 3.2891-0.70703 4.9375-0.90625 1.6562-0.20703 3.3047-0.3125 4.9531-0.3125 4.3203 0 7.4375 0.85547 9.3438 2.5625 1.9141 1.6992 2.875 4.4609 2.875 8.2812z"/>
  </symbol>
  <symbol id="b" overflow="visible">
   <path d="m12.031-30.719v6.7969h7.875v5.4688h-7.875v10.141c0 1.1172 0.21875 1.8711 0.65625 2.2656 0.4375 0.38672 1.3125 0.57812 2.625 0.57812h3.9375v5.4688h-6.5625c-3.0234 0-5.1641-0.62891-6.4219-1.8906-1.2617-1.2578-1.8906-3.3984-1.8906-6.4219v-10.141h-3.7969v-5.4688h3.7969v-6.7969z"/>
  </symbol>
  <symbol id="a" overflow="visible">
   <path d="m19.953-20.422v-12.812h7.6875v33.234h-7.6875v-3.4531c-1.0547 1.4062-2.2148 2.4375-3.4844 3.0938-1.2734 0.65625-2.7422 0.98438-4.4062 0.98438-2.9492 0-5.3711-1.1719-7.2656-3.5156-1.8867-2.3438-2.8281-5.3594-2.8281-9.0469s0.94141-6.7031 2.8281-9.0469c1.8945-2.3438 4.3164-3.5156 7.2656-3.5156 1.6562 0 3.1172 0.33594 4.3906 1 1.2812 0.65625 2.4453 1.6836 3.5 3.0781zm-5.0469 15.484c1.6445 0 2.8945-0.59766 3.75-1.7969 0.86328-1.1953 1.2969-2.9297 1.2969-5.2031 0-2.2812-0.43359-4.0195-1.2969-5.2188-0.85547-1.1953-2.1055-1.7969-3.75-1.7969-1.625 0-2.8711 0.60156-3.7344 1.7969-0.85547 1.1992-1.2812 2.9375-1.2812 5.2188 0 2.2734 0.42578 4.0078 1.2812 5.2031 0.86328 1.1992 2.1094 1.7969 3.7344 1.7969z"/>
  </symbol>
  <symbol id="f" overflow="visible">
   <path d="m16.406-4.9375c1.6328 0 2.8828-0.59766 3.75-1.7969 0.86328-1.1953 1.2969-2.9297 1.2969-5.2031 0-2.2812-0.43359-4.0195-1.2969-5.2188-0.86719-1.1953-2.1172-1.7969-3.75-1.7969-1.6367 0-2.8906 0.60547-3.7656 1.8125-0.875 1.1992-1.3125 2.9336-1.3125 5.2031 0 2.2617 0.4375 3.9961 1.3125 5.2031 0.875 1.1992 2.1289 1.7969 3.7656 1.7969zm-5.0781-15.484c1.0508-1.3945 2.2188-2.4219 3.5-3.0781 1.2812-0.66406 2.7539-1 4.4219-1 2.9453 0 5.3672 1.1719 7.2656 3.5156 1.8945 2.3438 2.8438 5.3594 2.8438 9.0469s-0.94922 6.7031-2.8438 9.0469c-1.8984 2.3438-4.3203 3.5156-7.2656 3.5156-1.668 0-3.1406-0.33594-4.4219-1s-2.4492-1.6914-3.5-3.0781v3.4531h-7.6562v-33.234h7.6562z"/>
  </symbol>
  <symbol id="e" overflow="visible">
   <path d="m0.53125-23.922h7.6562l6.4219 16.234 5.4688-16.234h7.6562l-10.062 26.188c-1.0117 2.6641-2.1953 4.5234-3.5469 5.5781-1.3438 1.0625-3.1211 1.5938-5.3281 1.5938h-4.4219v-5.0156h2.3906c1.3008 0 2.2422-0.21094 2.8281-0.625 0.59375-0.40625 1.0547-1.1484 1.3906-2.2188l0.20312-0.65625z"/>
  </symbol>
  <symbol id="d" overflow="visible">
   <path d="m26.219-30.891v6.75c-1.7617-0.78125-3.4766-1.3672-5.1406-1.7656-1.668-0.40625-3.2422-0.60938-4.7188-0.60938-1.9609 0-3.4141 0.27344-4.3594 0.8125-0.9375 0.54297-1.4062 1.3867-1.4062 2.5312 0 0.85547 0.31641 1.5234 0.95312 2 0.63281 0.46875 1.7852 0.875 3.4531 1.2188l3.5 0.70312c3.5391 0.71875 6.0625 1.8047 7.5625 3.25 1.5 1.4492 2.25 3.5117 2.25 6.1875 0 3.5234-1.0469 6.1406-3.1406 7.8594-2.0859 1.7188-5.2734 2.5781-9.5625 2.5781-2.0234 0-4.0547-0.19531-6.0938-0.57812-2.0312-0.38281-4.0625-0.95703-6.0938-1.7188v-6.9375c2.0312 1.0859 3.9922 1.9023 5.8906 2.4531 1.9062 0.54297 3.7422 0.8125 5.5156 0.8125 1.7891 0 3.1602-0.29688 4.1094-0.89062 0.95703-0.60156 1.4375-1.457 1.4375-2.5625 0-1-0.32422-1.7695-0.96875-2.3125-0.64844-0.53906-1.9375-1.0234-3.875-1.4531l-3.1875-0.70312c-3.1875-0.6875-5.5234-1.7734-7-3.2656-1.4688-1.5-2.2031-3.5156-2.2031-6.0469 0-3.1758 1.0234-5.6172 3.0781-7.3281 2.0508-1.707 5-2.5625 8.8438-2.5625 1.75 0 3.5508 0.13281 5.4062 0.39062 1.8516 0.26172 3.7695 0.65625 5.75 1.1875z"/>
  </symbol>
  <symbol id="n" overflow="visible">
   <path d="m3.4219-9.3125v-14.609h7.6875v2.3906c0 1.293-0.011719 2.918-0.03125 4.875-0.011719 1.9609-0.015625 3.2656-0.015625 3.9219 0 1.9297 0.046875 3.3125 0.14062 4.1562 0.10156 0.84375 0.28125 1.4609 0.53125 1.8438 0.3125 0.5 0.71875 0.88672 1.2188 1.1562 0.50781 0.27344 1.0938 0.40625 1.75 0.40625 1.5938 0 2.8438-0.60938 3.75-1.8281 0.91406-1.2266 1.375-2.9297 1.375-5.1094v-11.812h7.6406v23.922h-7.6406v-3.4531c-1.1562 1.3867-2.3828 2.4141-3.6719 3.0781-1.2812 0.66406-2.6992 1-4.25 1-2.7734 0-4.8828-0.84766-6.3281-2.5469-1.4375-1.6953-2.1562-4.1602-2.1562-7.3906z"/>
  </symbol>
  <symbol id="m" overflow="visible">
   <path d="m3.6719-23.922h7.6562v23.922h-7.6562zm0-9.3125h7.6562v6.2344h-7.6562z"/>
  </symbol>
  <symbol id="l" overflow="visible">
   <path d="m15.062-19.031c-1.6992 0-2.9961 0.60938-3.8906 1.8281-0.88672 1.2188-1.3281 2.9766-1.3281 5.2656 0 2.293 0.44141 4.0469 1.3281 5.2656 0.89453 1.2188 2.1914 1.8281 3.8906 1.8281 1.6641 0 2.9375-0.60938 3.8125-1.8281 0.88281-1.2188 1.3281-2.9727 1.3281-5.2656 0-2.2891-0.44531-4.0469-1.3281-5.2656-0.875-1.2188-2.1484-1.8281-3.8125-1.8281zm0-5.4688c4.1133 0 7.3281 1.1094 9.6406 3.3281s3.4688 5.2969 3.4688 9.2344c0 3.9297-1.1562 7.0078-3.4688 9.2344-2.3125 2.2188-5.5273 3.3281-9.6406 3.3281-4.1367 0-7.3711-1.1094-9.7031-3.3281-2.3242-2.2266-3.4844-5.3047-3.4844-9.2344 0-3.9375 1.1602-7.0156 3.4844-9.2344 2.332-2.2188 5.5664-3.3281 9.7031-3.3281z"/>
  </symbol>
  <symbol id="k" overflow="visible">
   <path d="m20.375-17.203c2.1562 0.5625 3.7891 1.5312 4.9062 2.9062 1.1133 1.375 1.6719 3.1211 1.6719 5.2344 0 3.168-1.2109 5.5742-3.625 7.2188-2.418 1.6484-5.9492 2.4688-10.594 2.4688-1.6367 0-3.2773-0.13672-4.9219-0.40625-1.6484-0.25781-3.2773-0.65625-4.8906-1.1875v-6.3438c1.5391 0.77344 3.0664 1.3555 4.5781 1.75 1.5195 0.38672 3.0156 0.57812 4.4844 0.57812 2.1758 0 3.8438-0.375 5-1.125 1.1641-0.75 1.75-1.832 1.75-3.25 0-1.4453-0.59375-2.5469-1.7812-3.2969s-2.9453-1.125-5.2656-1.125h-3.2969v-5.2969h3.4688c2.0625 0 3.5977-0.32031 4.6094-0.96875 1.0078-0.64453 1.5156-1.6289 1.5156-2.9531 0-1.2266-0.49219-2.1758-1.4688-2.8438-0.98047-0.67578-2.3711-1.0156-4.1719-1.0156-1.3242 0-2.6641 0.15234-4.0156 0.45312-1.3555 0.30469-2.6992 0.74609-4.0312 1.3281v-6.0312c1.625-0.44531 3.2344-0.78516 4.8281-1.0156 1.5938-0.22656 3.1602-0.34375 4.7031-0.34375 4.1328 0 7.2344 0.68359 9.2969 2.0469 2.0625 1.3555 3.0938 3.4023 3.0938 6.1406 0 1.8672-0.49609 3.3906-1.4844 4.5781-0.98047 1.1875-2.4336 2.0234-4.3594 2.5z"/>
  </symbol>
  <symbol id="j" overflow="visible">
   <path d="m15.828-15.75c-1.4375 0-2.5156 0.46875-3.2344 1.4062-0.71875 0.92969-1.0781 2.3281-1.0781 4.2031 0 1.8672 0.35938 3.2656 1.0781 4.2031 0.71875 0.92969 1.7969 1.3906 3.2344 1.3906 1.457 0 2.5469-0.46094 3.2656-1.3906 0.71875-0.9375 1.0781-2.3359 1.0781-4.2031 0-1.875-0.35938-3.2734-1.0781-4.2031-0.71875-0.9375-1.8086-1.4062-3.2656-1.4062zm10.172-15.312v5.8906c-1.3555-0.63281-2.6328-1.1016-3.8281-1.4062-1.1992-0.3125-2.3672-0.46875-3.5-0.46875-2.4492 0-4.3594 0.68359-5.7344 2.0469-1.3672 1.3555-2.1641 3.3711-2.3906 6.0469 0.94531-0.69531 1.9688-1.2188 3.0625-1.5625 1.0938-0.35156 2.2891-0.53125 3.5938-0.53125 3.2578 0 5.8906 0.96094 7.8906 2.875 2 1.9062 3 4.4023 3 7.4844 0 3.4297-1.1211 6.1719-3.3594 8.2344-2.2305 2.0547-5.2266 3.0781-8.9844 3.0781-4.1484 0-7.3555-1.3984-9.625-4.2031-2.2734-2.8008-3.4062-6.7695-3.4062-11.906 0-5.2695 1.3281-9.4102 3.9844-12.422 2.6562-3.0078 6.2969-4.5156 10.922-4.5156 1.4688 0 2.8906 0.11719 4.2656 0.34375 1.3828 0.21875 2.7539 0.55859 4.1094 1.0156z"/>
  </symbol>
  <symbol id="i" overflow="visible">
   <path d="m4.6406-31.891h20.438v6.0469h-13.891v4.9375c0.63281-0.17578 1.2656-0.3125 1.8906-0.40625 0.63281-0.09375 1.2969-0.14062 1.9844-0.14062 3.8828 0 6.9102 0.97656 9.0781 2.9219 2.1641 1.9492 3.25 4.6562 3.25 8.125 0 3.4492-1.1836 6.1523-3.5469 8.1094-2.3555 1.9492-5.625 2.9219-9.8125 2.9219-1.8047 0-3.5938-0.17969-5.375-0.53125-1.7734-0.34375-3.5312-0.875-5.2812-1.5938v-6.4688c1.7383 1 3.3828 1.75 4.9375 2.25 1.5625 0.49219 3.0352 0.73438 4.4219 0.73438 1.9883 0 3.5547-0.48438 4.7031-1.4531 1.1445-0.97656 1.7188-2.3008 1.7188-3.9688 0-1.6758-0.57422-3-1.7188-3.9688-1.1484-0.96875-2.7148-1.4531-4.7031-1.4531-1.1875 0-2.4531 0.15625-3.7969 0.46875-1.3359 0.30469-2.7656 0.77344-4.2969 1.4062z"/>
  </symbol>
 </defs>
 <g>
  <path d="m88.375 511.26c1.4492 3.0391 4.5078 4.9805 7.875 4.9883h166.25c2.3203 0 4.5469-0.92188 6.1875-2.5625s2.5625-3.8672 2.5625-6.1875v-53.461c12.949-2.4492 26.25-4.4609 40.25-5.6875 25.617-2.2773 51.383-2.2773 77 0l40.25 5.6875v53.461c0 2.3203 0.92188 4.5469 2.5625 6.1875s3.8672 2.5625 6.1875 2.5625h166.25c3.3672-0.007812 6.4258-1.9492 7.875-4.9883 1.25-2.8906 0.85156-6.2344-1.0508-8.75l-30.625-38.762 30.625-38.324c1.9023-2.5156 2.3008-5.8594 1.0508-8.75-1.3164-3.2109-4.4062-5.3398-7.875-5.4258h-61.25v-23.887c0.19141-3.9453-2.2812-7.5312-6.0391-8.75l-37.711-11.812v-28.875l65.188-32.637c2.9414-1.4844 4.8008-4.4961 4.8125-7.7891v-87.5c-0.011719-3.293-1.8711-6.3047-4.8125-7.7891l-65.188-32.637v-82.074c-0.011719-3.293-1.8711-6.3047-4.8125-7.7891l-70-35c-2.4766-1.2461-5.3984-1.2461-7.875 0l-66.062 32.988-66.062-32.988c-2.4766-1.2461-5.3984-1.2461-7.875 0l-70 35c-2.9414 1.4844-4.8008 4.4961-4.8125 7.7891v82.074l-65.188 32.637c-2.9414 1.4844-4.8008 4.4961-4.8125 7.7891v87.5c0.011719 3.293 1.8711 6.3047 4.8125 7.7891l65.188 32.637v28.875l-37.711 12.25c-3.7578 1.2188-6.2305 4.8047-6.0391 8.75v23.449h-61.25c-3.3672 0.007812-6.4258 1.9492-7.875 4.9883-1.25 2.8906-0.85156 6.2344 1.0508 8.75l30.625 38.762-30.625 38.324c-2.0742 2.6133-2.4805 6.1758-1.0508 9.1875zm462.88-295.84v76.648l-61.25 30.625-13.211-6.6484c11.012-13.262 15.449-30.785 12.074-47.688-3.8555-19.398-17.254-35.527-35.613-42.875l-24.5-9.8867 61.25-30.625zm-70 122.5v23.273c-23.035-7.1562-46.625-12.395-70.523-15.66 1.418-3.3398 2.6445-6.7578 3.6719-10.238 5.3828 1.5234 10.945 2.3203 16.539 2.3633 11.172 0.11719 22.148-2.9141 31.676-8.75zm-262.5-245 61.25-30.625 66.062 32.988c2.4766 1.2461 5.3984 1.2461 7.875 0l66.062-32.988 61.25 30.625v76.648l-65.188 32.637c-2.4727 1.2734-4.1953 3.6445-4.6367 6.3906l-12.773-5.1641h-0.003906c4.7383-11.73 5.0781-24.773 0.96094-36.734-4.1133-11.961-12.41-22.035-23.359-28.367v-15.836c0-4.6406 1.8438-9.0938 5.125-12.375s7.7344-5.125 12.375-5.125 9.0938 1.8438 12.375 5.125 5.125 7.7344 5.125 12.375h17.5c0-12.504-6.6719-24.059-17.5-30.312-10.828-6.25-24.172-6.25-35 0-10.828 6.2539-17.5 17.809-17.5 30.312v9.5391c-5.7852-1.0508-11.715-1.0508-17.5 0v-9.5391c0-12.504-6.6719-24.059-17.5-30.312-10.828-6.25-24.172-6.25-35 0-10.828 6.2539-17.5 17.809-17.5 30.312h17.5c0-4.6406 1.8438-9.0938 5.125-12.375s7.7344-5.125 12.375-5.125 9.0938 1.8438 12.375 5.125 5.125 7.7344 5.125 12.375v15.836c-10.949 6.332-19.246 16.406-23.359 28.367-4.1172 11.961-3.7773 25.004 0.96094 36.734l-12.602 5.1641c-0.44141-2.7461-2.1641-5.1172-4.6367-6.3906l-65.363-32.637zm103.25 111.56c-4.543-5.9609-7-13.246-7-20.738 0-12.504 6.6719-24.059 17.5-30.312 10.828-6.25 24.172-6.25 35 0 10.828 6.2539 17.5 17.809 17.5 30.312 0 7.4922-2.457 14.777-7 20.738-7.418-7.4375-17.492-11.617-28-11.617s-20.582 4.1797-28 11.617zm41.301 66.762h-26.25l12.949-31.676zm-45.238 41.039c2.2539-3.3281 4.1602-6.875 5.6875-10.59l5.6016-12.949h41.301l5.5977 13.039c1.5703 3.625 3.5039 7.0859 5.7734 10.324 4.3398 6.4062 9.9727 11.832 16.539 15.926-0.4375 1.5742-0.96094 2.9766-1.4883 4.4609h-93.973c-0.52344-1.4883-0.96094-2.8867-1.3984-4.375h-0.003906c6.4531-4.1406 12.016-9.5234 16.363-15.836zm-28.789 33.25c-23.898 3.2656-47.488 8.5039-70.523 15.66v-23.273l18.637-9.3633c9.5273 5.8359 20.504 8.8711 31.676 8.75 5.5938-0.035156 11.156-0.83203 16.539-2.3633 0.99609 3.6055 2.2266 7.1406 3.6719 10.59zm-140.52-53.465v-76.648l61.25-30.625 61.25 30.625-24.414 9.8867c-18.402 7.3086-31.844 23.453-35.699 42.875-3.3867 16.902 1.0508 34.434 12.074 47.688l-13.211 6.8242zm26.25 101.68 44.188-14.438c25.629-8.3398 52-14.199 78.75-17.5 9.4492 15.98 25.156 27.277 43.312 31.148v27.039h17.5v-27.039c18.273-3.6992 34.148-14.906 43.75-30.887 26.75 3.3008 53.121 9.1641 78.75 17.5l43.75 14.176v67.199l-56.438-15.664c-9.9766-2.8008-20.039-5.25-30.012-7.2617-16.02-3.2461-32.203-5.6445-48.477-7.1719-26.668-2.2773-53.48-2.2773-80.148 0-16.273 1.5273-32.457 3.9258-48.477 7.1719-9.9766 2.0117-20.039 4.4609-30.012 7.2617l-56.438 15.664z"/>
 </g>
</svg>
