<?xml version="1.0" encoding="UTF-8"?>
<svg width="400pt" height="400pt" version="1.1" viewBox="0 0 700 700" xmlns="http://www.w3.org/2000/svg" xmlns:xlink="http://www.w3.org/1999/xlink">
 <defs>
  <symbol id="m" overflow="visible">
   <path d="m30.047-1.7969c-1.543 0.80469-3.1562 1.4062-4.8438 1.8125-1.6797 0.41406-3.4297 0.625-5.25 0.625-5.4492 0-9.7656-1.5195-12.953-4.5625-3.1797-3.0508-4.7656-7.1797-4.7656-12.391 0-5.2266 1.5859-9.3633 4.7656-12.406 3.1875-3.0508 7.5039-4.5781 12.953-4.5781 1.8203 0 3.5703 0.21094 5.25 0.625 1.6875 0.40625 3.3008 1.0117 4.8438 1.8125v6.7656c-1.5625-1.0625-3.1055-1.8438-4.625-2.3438-1.5117-0.5-3.1055-0.75-4.7812-0.75-3.0117 0-5.3828 0.96484-7.1094 2.8906-1.7188 1.9297-2.5781 4.5898-2.5781 7.9844 0 3.3672 0.85938 6.0156 2.5781 7.9531 1.7266 1.9297 4.0977 2.8906 7.1094 2.8906 1.6758 0 3.2695-0.25 4.7812-0.75 1.5195-0.5 3.0625-1.2812 4.625-2.3438z"/>
  </symbol>
  <symbol id="h" overflow="visible">
   <path d="m21.984-17.859c-0.67969-0.3125-1.3594-0.54688-2.0469-0.70312-0.67969-0.15625-1.3594-0.23438-2.0469-0.23438-2.0117 0-3.5625 0.64844-4.6562 1.9375-1.0859 1.293-1.625 3.1484-1.625 5.5625v11.297h-7.8438v-24.531h7.8438v4.0312c1.0078-1.6016 2.1641-2.7734 3.4688-3.5156 1.3125-0.73828 2.8789-1.1094 4.7031-1.1094 0.25781 0 0.53906 0.011719 0.84375 0.03125 0.3125 0.023438 0.75781 0.070312 1.3438 0.14062z"/>
  </symbol>
  <symbol id="c" overflow="visible">
   <path d="m28.25-12.328v2.2344h-18.328c0.1875 1.8359 0.84766 3.2148 1.9844 4.1406 1.1445 0.91797 2.7383 1.375 4.7812 1.375 1.6562 0 3.3477-0.24219 5.0781-0.73438 1.7266-0.48828 3.5039-1.2266 5.3281-2.2188v6.0469c-1.8555 0.69922-3.7109 1.2266-5.5625 1.5781-1.8555 0.36328-3.7109 0.54688-5.5625 0.54688-4.4375 0-7.8906-1.1289-10.359-3.3906-2.4609-2.2578-3.6875-5.4258-3.6875-9.5 0-4 1.207-7.1445 3.625-9.4375 2.4141-2.2891 5.7422-3.4375 9.9844-3.4375 3.8516 0 6.9375 1.1641 9.25 3.4844 2.3125 2.3242 3.4688 5.4297 3.4688 9.3125zm-8.0469-2.6094c0-1.4883-0.4375-2.6875-1.3125-3.5938-0.86719-0.91406-2-1.375-3.4062-1.375-1.5234 0-2.7578 0.42969-3.7031 1.2812-0.94922 0.85547-1.5391 2.0859-1.7656 3.6875z"/>
  </symbol>
  <symbol id="b" overflow="visible">
   <path d="m14.766-11.047c-1.6367 0-2.8711 0.28125-3.7031 0.84375-0.82422 0.55469-1.2344 1.3711-1.2344 2.4531 0 0.99219 0.33203 1.7656 1 2.3281 0.66406 0.5625 1.5938 0.84375 2.7812 0.84375 1.4688 0 2.707-0.52344 3.7188-1.5781 1.0078-1.0625 1.5156-2.3906 1.5156-3.9844v-0.90625zm11.984-2.9531v14h-7.9062v-3.6406c-1.0547 1.4922-2.2422 2.5781-3.5625 3.2656-1.3125 0.67578-2.9141 1.0156-4.7969 1.0156-2.5312 0-4.5938-0.73828-6.1875-2.2188-1.5859-1.4883-2.375-3.4141-2.375-5.7812 0-2.875 0.98828-4.9844 2.9688-6.3281 1.9766-1.3438 5.0859-2.0156 9.3281-2.0156h4.625v-0.60938c0-1.25-0.49219-2.1602-1.4688-2.7344-0.98047-0.57031-2.5078-0.85938-4.5781-0.85938-1.6875 0-3.2578 0.16797-4.7031 0.5-1.4375 0.33594-2.7773 0.83984-4.0156 1.5156v-5.9844c1.6758-0.40625 3.3594-0.71094 5.0469-0.92188 1.6953-0.21875 3.3945-0.32812 5.0938-0.32812 4.4258 0 7.6172 0.875 9.5781 2.625 1.9688 1.7422 2.9531 4.5742 2.9531 8.5z"/>
  </symbol>
  <symbol id="g" overflow="visible">
   <path d="m12.328-31.5v6.9688h8.0938v5.6094h-8.0938v10.406c0 1.1367 0.22266 1.9062 0.67188 2.3125 0.45703 0.39844 1.3594 0.59375 2.7031 0.59375h4.0312v5.6094h-6.7188c-3.0938 0-5.293-0.64453-6.5938-1.9375-1.293-1.2891-1.9375-3.4844-1.9375-6.5781v-10.406h-3.8906v-5.6094h3.8906v-6.9688z"/>
  </symbol>
  <symbol id="f" overflow="visible">
   <path d="m20.453-20.938v-13.141h7.8906v34.078h-7.8906v-3.5469c-1.0742 1.4492-2.2617 2.5117-3.5625 3.1875-1.3047 0.66406-2.8086 1-4.5156 1-3.0234 0-5.5078-1.2031-7.4531-3.6094-1.9375-2.4062-2.9062-5.5-2.9062-9.2812s0.96875-6.8672 2.9062-9.2656c1.9453-2.4062 4.4297-3.6094 7.4531-3.6094 1.6953 0 3.1953 0.33984 4.5 1.0156 1.3125 0.67969 2.5039 1.7344 3.5781 3.1719zm-5.1719 15.875c1.6875 0 2.9688-0.60938 3.8438-1.8281 0.88281-1.2266 1.3281-3.0156 1.3281-5.3594 0-2.332-0.44531-4.1094-1.3281-5.3281-0.875-1.2266-2.1562-1.8438-3.8438-1.8438-1.6562 0-2.9297 0.61719-3.8125 1.8438-0.88672 1.2188-1.3281 2.9961-1.3281 5.3281 0 2.3438 0.44141 4.1328 1.3281 5.3594 0.88281 1.2188 2.1562 1.8281 3.8125 1.8281z"/>
  </symbol>
  <symbol id="e" overflow="visible">
   <path d="m16.828-5.0625c1.6758 0 2.9531-0.60938 3.8281-1.8281 0.88281-1.2266 1.3281-3.0156 1.3281-5.3594 0-2.332-0.44531-4.1094-1.3281-5.3281-0.875-1.2266-2.1523-1.8438-3.8281-1.8438-1.6875 0-2.9805 0.61719-3.875 1.8438-0.89844 1.2305-1.3438 3.0078-1.3438 5.3281 0 2.3242 0.44531 4.1055 1.3438 5.3438 0.89453 1.2305 2.1875 1.8438 3.875 1.8438zm-5.2188-15.875c1.082-1.4375 2.2812-2.4922 3.5938-3.1719 1.3125-0.67578 2.8203-1.0156 4.5312-1.0156 3.0195 0 5.5 1.2031 7.4375 3.6094 1.9453 2.3984 2.9219 5.4844 2.9219 9.2656s-0.97656 6.875-2.9219 9.2812c-1.9375 2.4062-4.418 3.6094-7.4375 3.6094-1.7109 0-3.2188-0.33984-4.5312-1.0156-1.3125-0.6875-2.5117-1.7422-3.5938-3.1719v3.5469h-7.8438v-34.078h7.8438z"/>
  </symbol>
  <symbol id="a" overflow="visible">
   <path d="m0.54688-24.531h7.8438l6.5938 16.641 5.6094-16.641h7.8438l-10.328 26.859c-1.0312 2.7266-2.2422 4.6328-3.625 5.7188-1.375 1.0938-3.1953 1.6406-5.4531 1.6406h-4.5469v-5.1562h2.4531c1.332 0 2.3008-0.21484 2.9062-0.64062 0.60156-0.41797 1.0781-1.1719 1.4219-2.2656l0.21875-0.6875z"/>
  </symbol>
  <symbol id="d" overflow="visible">
   <path d="m4.125-32.703h22.75v6.375h-14.328v6.0938h13.469v6.375h-13.469v7.4844h14.812v6.375h-23.234z"/>
  </symbol>
  <symbol id="l" overflow="visible">
   <path d="m3.5-9.5469v-14.984h7.8906v2.4531c0 1.3242-0.011719 2.9922-0.03125 5-0.011719 2.0117-0.015625 3.3516-0.015625 4.0156 0 1.9805 0.050781 3.4062 0.15625 4.2812 0.10156 0.86719 0.28125 1.4922 0.53125 1.875 0.3125 0.51172 0.72656 0.90625 1.25 1.1875 0.51953 0.28125 1.1133 0.42188 1.7812 0.42188 1.6328 0 2.9219-0.625 3.8594-1.875 0.9375-1.2578 1.4062-3.0078 1.4062-5.25v-12.109h7.8438v24.531h-7.8438v-3.5469c-1.1875 1.4297-2.4453 2.4844-3.7656 3.1719-1.3125 0.67578-2.7656 1.0156-4.3594 1.0156-2.8359 0-4.9961-0.86719-6.4844-2.6094-1.4805-1.7383-2.2188-4.2656-2.2188-7.5781z"/>
  </symbol>
  <symbol id="k" overflow="visible">
   <path d="m23.594-23.766v6.3906c-1.0742-0.72656-2.1484-1.2656-3.2188-1.6094-1.0742-0.35156-2.1836-0.53125-3.3281-0.53125-2.1992 0-3.9062 0.64062-5.125 1.9219-1.2188 1.2734-1.8281 3.0547-1.8281 5.3438 0 2.293 0.60938 4.0781 1.8281 5.3594s2.9258 1.9219 5.125 1.9219c1.2188 0 2.3789-0.17969 3.4844-0.54688 1.1016-0.36328 2.125-0.90625 3.0625-1.625v6.4219c-1.2305 0.44922-2.4766 0.78516-3.7344 1.0156-1.2617 0.22656-2.5273 0.34375-3.7969 0.34375-4.4297 0-7.8906-1.1328-10.391-3.4062-2.5-2.2695-3.75-5.4297-3.75-9.4844 0-4.0391 1.25-7.1953 3.75-9.4688 2.5-2.2695 5.9609-3.4062 10.391-3.4062 1.2812 0 2.5469 0.11719 3.7969 0.34375 1.25 0.23047 2.4922 0.57031 3.7344 1.0156z"/>
  </symbol>
  <symbol id="j" overflow="visible">
   <path d="m3.7656-34.078h7.8438v34.078h-7.8438z"/>
  </symbol>
  <symbol id="i" overflow="visible">
   <path d="m11.609-3.5469v12.875h-7.8438v-33.859h7.8438v3.5938c1.082-1.4375 2.2812-2.4922 3.5938-3.1719 1.3125-0.67578 2.8203-1.0156 4.5312-1.0156 3.0195 0 5.5 1.2031 7.4375 3.6094 1.9453 2.3984 2.9219 5.4844 2.9219 9.2656s-0.97656 6.875-2.9219 9.2812c-1.9375 2.4062-4.418 3.6094-7.4375 3.6094-1.7109 0-3.2188-0.33984-4.5312-1.0156-1.3125-0.6875-2.5117-1.7422-3.5938-3.1719zm5.2188-15.875c-1.6875 0-2.9805 0.61719-3.875 1.8438-0.89844 1.2305-1.3438 3.0078-1.3438 5.3281 0 2.3242 0.44531 4.1055 1.3438 5.3438 0.89453 1.2305 2.1875 1.8438 3.875 1.8438 1.6758 0 2.9531-0.60938 3.8281-1.8281 0.88281-1.2266 1.3281-3.0156 1.3281-5.3594 0-2.332-0.44531-4.1094-1.3281-5.3281-0.875-1.2266-2.1523-1.8438-3.8281-1.8438z"/>
  </symbol>
 </defs>
 <g>
  <path d="m197.47 299.8c0 4.957-4.0156 8.9727-8.9727 8.9727-4.9531 0-8.9688-4.0156-8.9688-8.9727 0-4.9531 4.0156-8.9727 8.9688-8.9727 4.957 0 8.9727 4.0195 8.9727 8.9727"/>
  <path d="m520.47 371.58c0 4.9531-4.0156 8.9727-8.9688 8.9727-4.957 0-8.9727-4.0195-8.9727-8.9727 0-4.957 4.0156-8.9727 8.9727-8.9727 4.9531 0 8.9688 4.0156 8.9688 8.9727"/>
  <path d="m203.81 171.56 146.19-146.18 146.19 146.18 12.688-12.684-158.88-158.88-158.88 158.88z"/>
  <path d="m350 111.38c-14.84 0-26.918 12.078-26.918 26.918 0 14.84 12.078 26.918 26.918 26.918s26.918-12.078 26.918-26.918c0-14.84-12.078-26.918-26.918-26.918zm0 35.891c-4.9453 0-8.9727-4.0273-8.9727-8.9727 0-4.9453 4.0273-8.9727 8.9727-8.9727s8.9727 4.0273 8.9727 8.9727c0 4.9414-4.0273 8.9727-8.9727 8.9727z"/>
  <path d="m111.06 201.11c13.844 0 26.406-7.4844 33.402-18.949 2.2891 0.59375 4.6289 1.0039 7.0508 1.0039 15.441 0 28.004-12.562 28.004-28.004 0-2.4219-0.41406-4.7656-1.0039-7.0508 11.477-6.9961 18.957-19.566 18.957-33.41 0-21.613-17.586-39.199-39.199-39.199-13.844 0-26.406 7.4844-33.402 18.949-2.2891-0.59375-4.6289-1.0039-7.0508-1.0039-15.453-0.003906-28.016 12.559-28.016 28 0 2.4219 0.41406 4.7656 1.0039 7.0508-11.465 7.0078-18.949 19.57-18.949 33.414 0 21.613 17.586 39.199 39.203 39.199zm40.465-35.891c-2.6914 0-5.2148-1.0508-7.1133-2.9414l-10.516-10.516 14.227-14.23 10.516 10.516c1.8945 1.9023 2.9453 4.4258 2.9453 7.1172 0 5.543-4.5156 10.055-10.059 10.055zm6.7461-71.777c11.719 0 21.254 9.5391 21.254 21.254 0 7.625-4.1914 14.535-10.57 18.293l-28.98-28.98c3.7617-6.375 10.672-10.566 18.297-10.566zm-40.465 17.945c2.6914 0 5.2148 1.0508 7.1133 2.9414l10.516 10.516-14.227 14.23-10.516-10.516c-1.8945-1.9023-2.9453-4.4219-2.9453-7.1133 0-5.5469 4.5117-10.059 10.059-10.059zm-17.434 32.23 28.973 28.973c-3.7578 6.3789-10.668 10.57-18.293 10.57-11.711 0.003906-21.25-9.5312-21.25-21.25 0-7.625 4.1914-14.535 10.57-18.293z"/>
  <path d="m628.14 204.42c0-21.613-17.586-39.199-39.199-39.199-13.844 0-26.406 7.4844-33.402 18.949-2.2891-0.59375-4.6289-1.0039-7.0508-1.0039-15.441 0-28.004 12.562-28.004 28.004 0 2.4219 0.41406 4.7656 1.0039 7.0508-11.48 7.0039-18.961 19.566-18.961 33.41 0 5.1875 1.0664 10.113 2.8984 14.645l-20.844 20.84v-86.008h21.66l-156.25-156.24-152.53 152.53-8.9727-8.9727-114.01 114.01 12.688 12.688 101.32-101.32 92.352 92.352 12.688-12.688-20.574-20.574 32.176 0.003907v35.891h89.723v-35.891h71.777l0.003906 32.172-21.66 21.66h-163.04l-93.441-93.438-111.38 111.38h30.633v215.34h484.51v-143.56h30.633l-111.38-111.38-93.441 93.438h-148.81v-53.836h35.891v35.891h89.723v-35.891h32.176l-20.574 20.574 12.688 12.688 92.352-92.352 101.32 101.32 12.688-12.688-83.406-83.406c13.691-0.13281 26.102-7.5625 33.035-18.922 2.2891 0.59375 4.6289 1.0039 7.0508 1.0039 15.441 0 28.004-12.562 28.004-28.004 0-2.4219-0.41406-4.7656-1.0039-7.0508 11.465-6.9961 18.949-19.566 18.949-33.41zm-278.14-134.18 112.93 112.93h-225.85zm-26.918 130.87h53.836v17.945h-53.836zm-107.67 0v14.23l-14.23-14.23zm161.5 89.723h-53.836v-17.945h53.836zm-121.9-35.887-21.66-21.66v-32.176h71.777v35.891h89.723v-35.891h71.777v53.836zm-66.523 3.7148 68.062 68.062h-136.12zm-26.914 86.008h53.836v17.945h-53.836zm0 71.777h53.836v17.945h-53.836zm71.777 35.891v-35.891h17.945v53.836h-125.61v-53.836h17.945v35.891zm-71.777 35.891h53.836v17.945h-53.836zm-35.891 0h17.945v35.891h89.723v-35.891h17.945v53.836l-125.61-0.003906zm197.39 0h53.836v17.945h-53.836zm71.781 35.887v-35.891h35.891v53.836h-161.5v-53.836h35.891v35.891zm53.832 17.945v-53.836h17.945v35.891h89.723v-35.891h17.945v53.836zm35.891-53.832h53.836v17.945h-53.836zm89.723-17.945h-125.61v-53.836h17.945v35.891h89.723v-35.891h17.945zm-89.723-53.836h53.836v17.945h-53.836zm26.918-86.008 68.062 68.062h-136.13zm-188.42 86.008h53.836v17.945h-53.836zm-17.945 0v35.891h89.723v-35.891h35.891v53.836h-161.5v-53.836zm-53.832-17.945h-125.61v-53.836h17.945v35.891h89.723v-35.891h17.945zm125.61-35.887h-53.836v-17.945h53.836zm171.56-161.5c2.6914 0 5.2148 1.0508 7.1133 2.9414l10.516 10.516-14.227 14.23-10.516-10.516c-1.8945-1.8984-2.9453-4.4219-2.9453-7.1133 0-5.543 4.5156-10.059 10.059-10.059zm-6.7461 71.781c-11.719 0-21.254-9.5391-21.254-21.254 0-7.625 4.1914-14.535 10.57-18.293l28.973 28.973c-3.7539 6.3828-10.664 10.574-18.289 10.574zm40.465-17.945c-2.6914 0-5.2148-1.0508-7.1133-2.9414l-10.516-10.516 14.23-14.23 10.516 10.516c1.8906 1.8984 2.9414 4.4219 2.9414 7.1133 0 5.543-4.5117 10.059-10.059 10.059zm17.434-32.23-28.98-28.98c3.7578-6.3789 10.668-10.57 18.293-10.57 11.719 0 21.254 9.5391 21.254 21.254 0.003907 7.6289-4.1875 14.539-10.566 18.297z"/>
  <path d="m521.48 76.328c-0.59375 2.2891-1.0078 4.6289-1.0078 7.0508 0 15.441 12.562 28.004 28.004 28.004 2.4219 0 4.7656-0.41406 7.0508-1.0039 7 11.465 19.57 18.949 33.402 18.949 21.613 0 39.199-17.586 39.199-39.199 0-13.844-7.4844-26.406-18.949-33.402 0.60547-2.293 1.0195-4.6328 1.0195-7.0664 0-15.441-12.562-28.004-28.004-28.004-2.4219 0-4.7656 0.41406-7.0508 1.0039-7-11.465-19.57-18.949-33.402-18.949-21.625 0.003906-39.211 17.59-39.211 39.203 0 13.844 7.4805 26.414 18.949 33.414zm16.938 7.0508c0-2.6914 1.0508-5.2148 2.9414-7.1133l10.52-10.516 14.23 14.23-10.516 10.516c-1.9023 1.8945-4.4219 2.9414-7.1133 2.9414-5.5469 0-10.062-4.5117-10.062-10.059zm50.523 28.004c-7.625 0-14.535-4.1914-18.293-10.57l28.973-28.973c6.3867 3.7539 10.578 10.66 10.578 18.289 0 11.715-9.5391 21.254-21.258 21.254zm3.3125-61.723c0 2.6914-1.0508 5.2148-2.9414 7.1133l-10.52 10.52-14.23-14.23 10.516-10.516c1.9023-1.8945 4.4219-2.9414 7.1133-2.9414 5.5508 0 10.062 4.5117 10.062 10.055zm-50.523-28c7.625 0 14.535 4.1914 18.293 10.57l-28.98 28.98c-6.3789-3.7617-10.57-10.668-10.57-18.297 0-11.719 9.5391-21.254 21.258-21.254z"/>
 </g>
</svg>
